<mxfile host="app.diagrams.net" modified="2023-05-29T00:31:50.483Z" agent="Mozilla/5.0 (Windows NT 10.0; Win64; x64) AppleWebKit/537.36 (KHTML, like Gecko) Chrome/112.0.0.0 Safari/537.36 OPR/98.0.0.0" etag="l4Rn9pqiGvOW9Eycfm-d" version="21.3.5" type="github">
  <diagram id="C5RBs43oDa-KdzZeNtuy" name="Page-1">
    <mxGraphModel dx="1393" dy="797" grid="1" gridSize="10" guides="1" tooltips="1" connect="1" arrows="1" fold="1" page="1" pageScale="1" pageWidth="827" pageHeight="1169" math="0" shadow="0">
      <root>
        <mxCell id="WIyWlLk6GJQsqaUBKTNV-0" />
        <mxCell id="WIyWlLk6GJQsqaUBKTNV-1" parent="WIyWlLk6GJQsqaUBKTNV-0" />
        <mxCell id="zff_B5IQbPtcPdRi2vjV-11" style="edgeStyle=orthogonalEdgeStyle;rounded=0;orthogonalLoop=1;jettySize=auto;html=1;endArrow=none;endFill=0;entryX=0.5;entryY=0;entryDx=0;entryDy=0;" edge="1" parent="WIyWlLk6GJQsqaUBKTNV-1" target="zff_B5IQbPtcPdRi2vjV-12">
          <mxGeometry relative="1" as="geometry">
            <Array as="points">
              <mxPoint x="330" y="525" />
              <mxPoint x="280" y="525" />
            </Array>
            <mxPoint x="329.97" y="505" as="sourcePoint" />
            <mxPoint x="279.97" y="565" as="targetPoint" />
          </mxGeometry>
        </mxCell>
        <mxCell id="kRaLvHOS_kjedmqLjQbr-111" style="edgeStyle=orthogonalEdgeStyle;rounded=0;orthogonalLoop=1;jettySize=auto;html=1;endArrow=none;endFill=0;exitX=1;exitY=0.5;exitDx=0;exitDy=0;entryX=0.5;entryY=0;entryDx=0;entryDy=0;" parent="WIyWlLk6GJQsqaUBKTNV-1" source="kRaLvHOS_kjedmqLjQbr-0" target="kRaLvHOS_kjedmqLjQbr-7" edge="1">
          <mxGeometry relative="1" as="geometry">
            <Array as="points">
              <mxPoint x="574" y="665" />
              <mxPoint x="570" y="665" />
              <mxPoint x="570" y="655" />
              <mxPoint x="645" y="655" />
            </Array>
            <mxPoint x="655" y="665" as="sourcePoint" />
          </mxGeometry>
        </mxCell>
        <mxCell id="kRaLvHOS_kjedmqLjQbr-0" value="Produto        " style="rounded=1;whiteSpace=wrap;html=1;" parent="WIyWlLk6GJQsqaUBKTNV-1" vertex="1">
          <mxGeometry x="454" y="630" width="120" height="60" as="geometry" />
        </mxCell>
        <mxCell id="kRaLvHOS_kjedmqLjQbr-6" value="" style="ellipse;whiteSpace=wrap;html=1;aspect=fixed;" parent="WIyWlLk6GJQsqaUBKTNV-1" vertex="1">
          <mxGeometry x="635" y="740" width="20" height="20" as="geometry" />
        </mxCell>
        <mxCell id="kRaLvHOS_kjedmqLjQbr-7" value="" style="ellipse;whiteSpace=wrap;html=1;aspect=fixed;" parent="WIyWlLk6GJQsqaUBKTNV-1" vertex="1">
          <mxGeometry x="635" y="770" width="20" height="20" as="geometry" />
        </mxCell>
        <mxCell id="kRaLvHOS_kjedmqLjQbr-8" value="" style="ellipse;whiteSpace=wrap;html=1;aspect=fixed;" parent="WIyWlLk6GJQsqaUBKTNV-1" vertex="1">
          <mxGeometry x="635" y="710" width="20" height="20" as="geometry" />
        </mxCell>
        <mxCell id="kRaLvHOS_kjedmqLjQbr-10" value="id_produto " style="text;html=1;strokeColor=none;fillColor=none;align=center;verticalAlign=middle;whiteSpace=wrap;rounded=0;" parent="WIyWlLk6GJQsqaUBKTNV-1" vertex="1">
          <mxGeometry x="663" y="710" width="50" height="20" as="geometry" />
        </mxCell>
        <mxCell id="kRaLvHOS_kjedmqLjQbr-11" value="nome                   " style="text;html=1;strokeColor=none;fillColor=none;align=center;verticalAlign=middle;whiteSpace=wrap;rounded=0;" parent="WIyWlLk6GJQsqaUBKTNV-1" vertex="1">
          <mxGeometry x="651" y="740" width="50" height="20" as="geometry" />
        </mxCell>
        <mxCell id="kRaLvHOS_kjedmqLjQbr-12" value="preÃ§o" style="text;html=1;strokeColor=none;fillColor=none;align=center;verticalAlign=middle;whiteSpace=wrap;rounded=0;" parent="WIyWlLk6GJQsqaUBKTNV-1" vertex="1">
          <mxGeometry x="651" y="770" width="50" height="20" as="geometry" />
        </mxCell>
        <mxCell id="kRaLvHOS_kjedmqLjQbr-49" style="edgeStyle=orthogonalEdgeStyle;rounded=0;orthogonalLoop=1;jettySize=auto;html=1;exitX=0;exitY=0.5;exitDx=0;exitDy=0;" parent="WIyWlLk6GJQsqaUBKTNV-1" source="kRaLvHOS_kjedmqLjQbr-50" edge="1">
          <mxGeometry relative="1" as="geometry">
            <Array as="points">
              <mxPoint x="260" y="316" />
              <mxPoint x="270" y="316" />
            </Array>
            <mxPoint x="260" y="281" as="sourcePoint" />
            <mxPoint x="270" y="160" as="targetPoint" />
          </mxGeometry>
        </mxCell>
        <mxCell id="kRaLvHOS_kjedmqLjQbr-98" style="edgeStyle=orthogonalEdgeStyle;rounded=0;orthogonalLoop=1;jettySize=auto;html=1;entryX=0.917;entryY=0.5;entryDx=0;entryDy=0;entryPerimeter=0;" parent="WIyWlLk6GJQsqaUBKTNV-1" source="kRaLvHOS_kjedmqLjQbr-50" target="kRaLvHOS_kjedmqLjQbr-60" edge="1">
          <mxGeometry relative="1" as="geometry" />
        </mxCell>
        <mxCell id="kRaLvHOS_kjedmqLjQbr-99" value="n:1" style="edgeLabel;html=1;align=center;verticalAlign=middle;resizable=0;points=[];" parent="kRaLvHOS_kjedmqLjQbr-98" vertex="1" connectable="0">
          <mxGeometry x="-0.5779" relative="1" as="geometry">
            <mxPoint as="offset" />
          </mxGeometry>
        </mxCell>
        <mxCell id="kRaLvHOS_kjedmqLjQbr-116" style="edgeStyle=orthogonalEdgeStyle;rounded=0;orthogonalLoop=1;jettySize=auto;html=1;endArrow=none;endFill=0;" parent="WIyWlLk6GJQsqaUBKTNV-1" source="kRaLvHOS_kjedmqLjQbr-50" target="kRaLvHOS_kjedmqLjQbr-72" edge="1">
          <mxGeometry relative="1" as="geometry">
            <Array as="points">
              <mxPoint x="320" y="395" />
              <mxPoint x="320" y="395" />
            </Array>
          </mxGeometry>
        </mxCell>
        <mxCell id="kRaLvHOS_kjedmqLjQbr-118" value="n:1" style="edgeLabel;html=1;align=center;verticalAlign=middle;resizable=0;points=[];" parent="kRaLvHOS_kjedmqLjQbr-116" vertex="1" connectable="0">
          <mxGeometry x="0.1996" y="1" relative="1" as="geometry">
            <mxPoint as="offset" />
          </mxGeometry>
        </mxCell>
        <mxCell id="kRaLvHOS_kjedmqLjQbr-50" value="Pedido         " style="rounded=1;whiteSpace=wrap;html=1;" parent="WIyWlLk6GJQsqaUBKTNV-1" vertex="1">
          <mxGeometry x="260" y="285" width="120" height="60" as="geometry" />
        </mxCell>
        <mxCell id="kRaLvHOS_kjedmqLjQbr-51" value="" style="ellipse;whiteSpace=wrap;html=1;aspect=fixed;" parent="WIyWlLk6GJQsqaUBKTNV-1" vertex="1">
          <mxGeometry x="260" y="215" width="20" height="20" as="geometry" />
        </mxCell>
        <mxCell id="kRaLvHOS_kjedmqLjQbr-52" value="" style="ellipse;whiteSpace=wrap;html=1;aspect=fixed;" parent="WIyWlLk6GJQsqaUBKTNV-1" vertex="1">
          <mxGeometry x="260" y="245" width="20" height="20" as="geometry" />
        </mxCell>
        <mxCell id="kRaLvHOS_kjedmqLjQbr-53" value="" style="ellipse;whiteSpace=wrap;html=1;aspect=fixed;" parent="WIyWlLk6GJQsqaUBKTNV-1" vertex="1">
          <mxGeometry x="260" y="185" width="20" height="20" as="geometry" />
        </mxCell>
        <mxCell id="kRaLvHOS_kjedmqLjQbr-54" value="valor_total            " style="text;html=1;strokeColor=none;fillColor=none;align=center;verticalAlign=middle;whiteSpace=wrap;rounded=0;" parent="WIyWlLk6GJQsqaUBKTNV-1" vertex="1">
          <mxGeometry x="285" y="245" width="50" height="20" as="geometry" />
        </mxCell>
        <mxCell id="kRaLvHOS_kjedmqLjQbr-55" value="id_cliente " style="text;html=1;strokeColor=none;fillColor=none;align=center;verticalAlign=middle;whiteSpace=wrap;rounded=0;" parent="WIyWlLk6GJQsqaUBKTNV-1" vertex="1">
          <mxGeometry x="285" y="185" width="50" height="20" as="geometry" />
        </mxCell>
        <mxCell id="kRaLvHOS_kjedmqLjQbr-56" value="data                   " style="text;html=1;strokeColor=none;fillColor=none;align=center;verticalAlign=middle;whiteSpace=wrap;rounded=0;" parent="WIyWlLk6GJQsqaUBKTNV-1" vertex="1">
          <mxGeometry x="248" y="215" width="95" height="20" as="geometry" />
        </mxCell>
        <mxCell id="kRaLvHOS_kjedmqLjQbr-68" style="edgeStyle=orthogonalEdgeStyle;rounded=0;orthogonalLoop=1;jettySize=auto;html=1;entryX=0.5;entryY=0.5;entryDx=0;entryDy=0;entryPerimeter=0;" parent="WIyWlLk6GJQsqaUBKTNV-1" source="kRaLvHOS_kjedmqLjQbr-60" target="kRaLvHOS_kjedmqLjQbr-61" edge="1">
          <mxGeometry relative="1" as="geometry">
            <Array as="points">
              <mxPoint x="670" y="285" />
              <mxPoint x="670" y="285" />
            </Array>
          </mxGeometry>
        </mxCell>
        <mxCell id="kRaLvHOS_kjedmqLjQbr-69" style="edgeStyle=orthogonalEdgeStyle;rounded=0;orthogonalLoop=1;jettySize=auto;html=1;" parent="WIyWlLk6GJQsqaUBKTNV-1" source="kRaLvHOS_kjedmqLjQbr-60" edge="1">
          <mxGeometry relative="1" as="geometry">
            <Array as="points">
              <mxPoint x="670" y="285" />
              <mxPoint x="670" y="285" />
            </Array>
            <mxPoint x="630" y="160" as="targetPoint" />
          </mxGeometry>
        </mxCell>
        <mxCell id="kRaLvHOS_kjedmqLjQbr-60" value="Cliente          " style="rounded=1;whiteSpace=wrap;html=1;" parent="WIyWlLk6GJQsqaUBKTNV-1" vertex="1">
          <mxGeometry x="620" y="285" width="120" height="60" as="geometry" />
        </mxCell>
        <mxCell id="kRaLvHOS_kjedmqLjQbr-61" value="" style="ellipse;whiteSpace=wrap;html=1;aspect=fixed;" parent="WIyWlLk6GJQsqaUBKTNV-1" vertex="1">
          <mxGeometry x="620" y="235" width="20" height="20" as="geometry" />
        </mxCell>
        <mxCell id="kRaLvHOS_kjedmqLjQbr-63" value="" style="ellipse;whiteSpace=wrap;html=1;aspect=fixed;" parent="WIyWlLk6GJQsqaUBKTNV-1" vertex="1">
          <mxGeometry x="620" y="205" width="20" height="20" as="geometry" />
        </mxCell>
        <mxCell id="kRaLvHOS_kjedmqLjQbr-64" value="telefone               " style="text;html=1;strokeColor=none;fillColor=none;align=center;verticalAlign=middle;whiteSpace=wrap;rounded=0;" parent="WIyWlLk6GJQsqaUBKTNV-1" vertex="1">
          <mxGeometry x="647" y="205" width="50" height="20" as="geometry" />
        </mxCell>
        <mxCell id="kRaLvHOS_kjedmqLjQbr-65" value="email                  " style="text;html=1;strokeColor=none;fillColor=none;align=center;verticalAlign=middle;whiteSpace=wrap;rounded=0;" parent="WIyWlLk6GJQsqaUBKTNV-1" vertex="1">
          <mxGeometry x="640" y="235" width="50" height="20" as="geometry" />
        </mxCell>
        <mxCell id="kRaLvHOS_kjedmqLjQbr-114" style="edgeStyle=orthogonalEdgeStyle;rounded=0;orthogonalLoop=1;jettySize=auto;html=1;endArrow=none;endFill=0;exitX=1;exitY=0.5;exitDx=0;exitDy=0;" parent="WIyWlLk6GJQsqaUBKTNV-1" source="kRaLvHOS_kjedmqLjQbr-72" target="kRaLvHOS_kjedmqLjQbr-0" edge="1">
          <mxGeometry relative="1" as="geometry">
            <mxPoint x="390" y="620" as="sourcePoint" />
            <Array as="points">
              <mxPoint x="390" y="660" />
            </Array>
          </mxGeometry>
        </mxCell>
        <mxCell id="kRaLvHOS_kjedmqLjQbr-115" value="n:1" style="edgeLabel;html=1;align=center;verticalAlign=middle;resizable=0;points=[];" parent="kRaLvHOS_kjedmqLjQbr-114" vertex="1" connectable="0">
          <mxGeometry x="0.09" relative="1" as="geometry">
            <mxPoint as="offset" />
          </mxGeometry>
        </mxCell>
        <mxCell id="kRaLvHOS_kjedmqLjQbr-119" style="edgeStyle=orthogonalEdgeStyle;rounded=0;orthogonalLoop=1;jettySize=auto;html=1;endArrow=none;endFill=0;" parent="WIyWlLk6GJQsqaUBKTNV-1" source="kRaLvHOS_kjedmqLjQbr-72" target="kRaLvHOS_kjedmqLjQbr-74" edge="1">
          <mxGeometry relative="1" as="geometry" />
        </mxCell>
        <mxCell id="kRaLvHOS_kjedmqLjQbr-120" style="edgeStyle=orthogonalEdgeStyle;rounded=0;orthogonalLoop=1;jettySize=auto;html=1;endArrow=none;endFill=0;" parent="WIyWlLk6GJQsqaUBKTNV-1" source="kRaLvHOS_kjedmqLjQbr-72" target="kRaLvHOS_kjedmqLjQbr-73" edge="1">
          <mxGeometry relative="1" as="geometry">
            <Array as="points">
              <mxPoint x="330" y="525" />
              <mxPoint x="280" y="525" />
            </Array>
          </mxGeometry>
        </mxCell>
        <mxCell id="kRaLvHOS_kjedmqLjQbr-72" value="ItemPedido        " style="rounded=1;whiteSpace=wrap;html=1;" parent="WIyWlLk6GJQsqaUBKTNV-1" vertex="1">
          <mxGeometry x="270" y="445" width="120" height="60" as="geometry" />
        </mxCell>
        <mxCell id="kRaLvHOS_kjedmqLjQbr-73" value="" style="ellipse;whiteSpace=wrap;html=1;aspect=fixed;" parent="WIyWlLk6GJQsqaUBKTNV-1" vertex="1">
          <mxGeometry x="270" y="565" width="20" height="20" as="geometry" />
        </mxCell>
        <mxCell id="kRaLvHOS_kjedmqLjQbr-74" value="" style="ellipse;whiteSpace=wrap;html=1;aspect=fixed;" parent="WIyWlLk6GJQsqaUBKTNV-1" vertex="1">
          <mxGeometry x="270" y="535" width="20" height="20" as="geometry" />
        </mxCell>
        <mxCell id="kRaLvHOS_kjedmqLjQbr-75" value="id_item" style="text;html=1;strokeColor=none;fillColor=none;align=center;verticalAlign=middle;whiteSpace=wrap;rounded=0;" parent="WIyWlLk6GJQsqaUBKTNV-1" vertex="1">
          <mxGeometry x="295" y="535" width="50" height="20" as="geometry" />
        </mxCell>
        <mxCell id="kRaLvHOS_kjedmqLjQbr-76" value="id_pedido " style="text;html=1;strokeColor=none;fillColor=none;align=center;verticalAlign=middle;whiteSpace=wrap;rounded=0;" parent="WIyWlLk6GJQsqaUBKTNV-1" vertex="1">
          <mxGeometry x="299" y="565" width="50" height="20" as="geometry" />
        </mxCell>
        <mxCell id="zff_B5IQbPtcPdRi2vjV-8" value="" style="ellipse;whiteSpace=wrap;html=1;aspect=fixed;" vertex="1" parent="WIyWlLk6GJQsqaUBKTNV-1">
          <mxGeometry x="270" y="595" width="20" height="20" as="geometry" />
        </mxCell>
        <mxCell id="zff_B5IQbPtcPdRi2vjV-9" value="" style="ellipse;whiteSpace=wrap;html=1;aspect=fixed;" vertex="1" parent="WIyWlLk6GJQsqaUBKTNV-1">
          <mxGeometry x="270" y="625" width="20" height="20" as="geometry" />
        </mxCell>
        <mxCell id="zff_B5IQbPtcPdRi2vjV-12" value="" style="ellipse;whiteSpace=wrap;html=1;aspect=fixed;" vertex="1" parent="WIyWlLk6GJQsqaUBKTNV-1">
          <mxGeometry x="270" y="654" width="20" height="20" as="geometry" />
        </mxCell>
        <mxCell id="zff_B5IQbPtcPdRi2vjV-13" value="id_produto" style="text;html=1;strokeColor=none;fillColor=none;align=center;verticalAlign=middle;whiteSpace=wrap;rounded=0;" vertex="1" parent="WIyWlLk6GJQsqaUBKTNV-1">
          <mxGeometry x="301" y="595" width="50" height="20" as="geometry" />
        </mxCell>
        <mxCell id="zff_B5IQbPtcPdRi2vjV-14" value="quantidade             " style="text;html=1;strokeColor=none;fillColor=none;align=center;verticalAlign=middle;whiteSpace=wrap;rounded=0;" vertex="1" parent="WIyWlLk6GJQsqaUBKTNV-1">
          <mxGeometry x="301" y="625" width="50" height="20" as="geometry" />
        </mxCell>
        <mxCell id="zff_B5IQbPtcPdRi2vjV-15" value="valor_total_item       " style="text;html=1;strokeColor=none;fillColor=none;align=center;verticalAlign=middle;whiteSpace=wrap;rounded=0;" vertex="1" parent="WIyWlLk6GJQsqaUBKTNV-1">
          <mxGeometry x="313" y="654" width="50" height="20" as="geometry" />
        </mxCell>
        <mxCell id="zff_B5IQbPtcPdRi2vjV-17" value="" style="ellipse;whiteSpace=wrap;html=1;aspect=fixed;" vertex="1" parent="WIyWlLk6GJQsqaUBKTNV-1">
          <mxGeometry x="260" y="160" width="20" height="20" as="geometry" />
        </mxCell>
        <mxCell id="zff_B5IQbPtcPdRi2vjV-18" value="id_pedido " style="text;html=1;strokeColor=none;fillColor=none;align=center;verticalAlign=middle;whiteSpace=wrap;rounded=0;" vertex="1" parent="WIyWlLk6GJQsqaUBKTNV-1">
          <mxGeometry x="285" y="160" width="50" height="20" as="geometry" />
        </mxCell>
        <mxCell id="zff_B5IQbPtcPdRi2vjV-19" value="" style="ellipse;whiteSpace=wrap;html=1;aspect=fixed;" vertex="1" parent="WIyWlLk6GJQsqaUBKTNV-1">
          <mxGeometry x="620" y="176" width="20" height="20" as="geometry" />
        </mxCell>
        <mxCell id="zff_B5IQbPtcPdRi2vjV-20" value="nome                   " style="text;html=1;strokeColor=none;fillColor=none;align=center;verticalAlign=middle;whiteSpace=wrap;rounded=0;" vertex="1" parent="WIyWlLk6GJQsqaUBKTNV-1">
          <mxGeometry x="640" y="176" width="50" height="20" as="geometry" />
        </mxCell>
        <mxCell id="zff_B5IQbPtcPdRi2vjV-21" value="" style="ellipse;whiteSpace=wrap;html=1;aspect=fixed;" vertex="1" parent="WIyWlLk6GJQsqaUBKTNV-1">
          <mxGeometry x="620" y="150" width="20" height="20" as="geometry" />
        </mxCell>
        <mxCell id="zff_B5IQbPtcPdRi2vjV-22" value="id_cliente " style="text;html=1;strokeColor=none;fillColor=none;align=center;verticalAlign=middle;whiteSpace=wrap;rounded=0;" vertex="1" parent="WIyWlLk6GJQsqaUBKTNV-1">
          <mxGeometry x="650" y="150" width="50" height="20" as="geometry" />
        </mxCell>
        <mxCell id="zff_B5IQbPtcPdRi2vjV-23" style="edgeStyle=orthogonalEdgeStyle;rounded=0;orthogonalLoop=1;jettySize=auto;html=1;entryX=0.5;entryY=0.5;entryDx=0;entryDy=0;entryPerimeter=0;" edge="1" parent="WIyWlLk6GJQsqaUBKTNV-1" source="zff_B5IQbPtcPdRi2vjV-25" target="zff_B5IQbPtcPdRi2vjV-26">
          <mxGeometry relative="1" as="geometry">
            <Array as="points">
              <mxPoint x="480" y="285" />
              <mxPoint x="480" y="285" />
            </Array>
          </mxGeometry>
        </mxCell>
        <mxCell id="zff_B5IQbPtcPdRi2vjV-24" style="edgeStyle=orthogonalEdgeStyle;rounded=0;orthogonalLoop=1;jettySize=auto;html=1;" edge="1" parent="WIyWlLk6GJQsqaUBKTNV-1" source="zff_B5IQbPtcPdRi2vjV-25">
          <mxGeometry relative="1" as="geometry">
            <Array as="points">
              <mxPoint x="480" y="285" />
              <mxPoint x="480" y="285" />
            </Array>
            <mxPoint x="440" y="160" as="targetPoint" />
          </mxGeometry>
        </mxCell>
        <mxCell id="zff_B5IQbPtcPdRi2vjV-25" value="Padaria" style="rounded=1;whiteSpace=wrap;html=1;" vertex="1" parent="WIyWlLk6GJQsqaUBKTNV-1">
          <mxGeometry x="430" y="285" width="120" height="60" as="geometry" />
        </mxCell>
        <mxCell id="zff_B5IQbPtcPdRi2vjV-26" value="" style="ellipse;whiteSpace=wrap;html=1;aspect=fixed;" vertex="1" parent="WIyWlLk6GJQsqaUBKTNV-1">
          <mxGeometry x="430" y="235" width="20" height="20" as="geometry" />
        </mxCell>
        <mxCell id="zff_B5IQbPtcPdRi2vjV-27" value="" style="ellipse;whiteSpace=wrap;html=1;aspect=fixed;" vertex="1" parent="WIyWlLk6GJQsqaUBKTNV-1">
          <mxGeometry x="430" y="205" width="20" height="20" as="geometry" />
        </mxCell>
        <mxCell id="zff_B5IQbPtcPdRi2vjV-28" value="endereco          " style="text;html=1;strokeColor=none;fillColor=none;align=center;verticalAlign=middle;whiteSpace=wrap;rounded=0;" vertex="1" parent="WIyWlLk6GJQsqaUBKTNV-1">
          <mxGeometry x="457" y="205" width="50" height="20" as="geometry" />
        </mxCell>
        <mxCell id="zff_B5IQbPtcPdRi2vjV-29" value="telefone          " style="text;html=1;strokeColor=none;fillColor=none;align=center;verticalAlign=middle;whiteSpace=wrap;rounded=0;" vertex="1" parent="WIyWlLk6GJQsqaUBKTNV-1">
          <mxGeometry x="452" y="235" width="50" height="20" as="geometry" />
        </mxCell>
        <mxCell id="zff_B5IQbPtcPdRi2vjV-30" value="" style="ellipse;whiteSpace=wrap;html=1;aspect=fixed;" vertex="1" parent="WIyWlLk6GJQsqaUBKTNV-1">
          <mxGeometry x="430" y="176" width="20" height="20" as="geometry" />
        </mxCell>
        <mxCell id="zff_B5IQbPtcPdRi2vjV-31" value="nome                   " style="text;html=1;strokeColor=none;fillColor=none;align=center;verticalAlign=middle;whiteSpace=wrap;rounded=0;" vertex="1" parent="WIyWlLk6GJQsqaUBKTNV-1">
          <mxGeometry x="450" y="176" width="50" height="20" as="geometry" />
        </mxCell>
        <mxCell id="zff_B5IQbPtcPdRi2vjV-32" value="" style="ellipse;whiteSpace=wrap;html=1;aspect=fixed;" vertex="1" parent="WIyWlLk6GJQsqaUBKTNV-1">
          <mxGeometry x="430" y="150" width="20" height="20" as="geometry" />
        </mxCell>
        <mxCell id="zff_B5IQbPtcPdRi2vjV-33" value="id_padaria        " style="text;html=1;strokeColor=none;fillColor=none;align=center;verticalAlign=middle;whiteSpace=wrap;rounded=0;" vertex="1" parent="WIyWlLk6GJQsqaUBKTNV-1">
          <mxGeometry x="460" y="150" width="50" height="20" as="geometry" />
        </mxCell>
        <mxCell id="zff_B5IQbPtcPdRi2vjV-34" value="n:1" style="edgeLabel;html=1;align=center;verticalAlign=middle;resizable=0;points=[];" vertex="1" connectable="0" parent="WIyWlLk6GJQsqaUBKTNV-1">
          <mxGeometry x="331.0000000000002" y="415" as="geometry">
            <mxPoint x="75" y="-101" as="offset" />
          </mxGeometry>
        </mxCell>
        <mxCell id="zff_B5IQbPtcPdRi2vjV-35" value="1:n" style="edgeLabel;html=1;align=center;verticalAlign=middle;resizable=0;points=[];" vertex="1" connectable="0" parent="WIyWlLk6GJQsqaUBKTNV-1">
          <mxGeometry x="330.0000000000002" y="410" as="geometry">
            <mxPoint x="254" y="-96" as="offset" />
          </mxGeometry>
        </mxCell>
        <mxCell id="zff_B5IQbPtcPdRi2vjV-36" style="edgeStyle=orthogonalEdgeStyle;rounded=0;orthogonalLoop=1;jettySize=auto;html=1;endArrow=none;endFill=0;exitX=1;exitY=0.5;exitDx=0;exitDy=0;entryX=0.5;entryY=0;entryDx=0;entryDy=0;" edge="1" parent="WIyWlLk6GJQsqaUBKTNV-1" target="zff_B5IQbPtcPdRi2vjV-39">
          <mxGeometry relative="1" as="geometry">
            <Array as="points">
              <mxPoint x="616" y="480" />
              <mxPoint x="612" y="480" />
              <mxPoint x="612" y="470" />
              <mxPoint x="687" y="470" />
            </Array>
            <mxPoint x="554.5" y="475" as="sourcePoint" />
          </mxGeometry>
        </mxCell>
        <mxCell id="zff_B5IQbPtcPdRi2vjV-37" value="FuncionÃ¡rio   " style="rounded=1;whiteSpace=wrap;html=1;" vertex="1" parent="WIyWlLk6GJQsqaUBKTNV-1">
          <mxGeometry x="510" y="445" width="120" height="60" as="geometry" />
        </mxCell>
        <mxCell id="zff_B5IQbPtcPdRi2vjV-38" value="" style="ellipse;whiteSpace=wrap;html=1;aspect=fixed;" vertex="1" parent="WIyWlLk6GJQsqaUBKTNV-1">
          <mxGeometry x="677" y="555" width="20" height="20" as="geometry" />
        </mxCell>
        <mxCell id="zff_B5IQbPtcPdRi2vjV-39" value="" style="ellipse;whiteSpace=wrap;html=1;aspect=fixed;" vertex="1" parent="WIyWlLk6GJQsqaUBKTNV-1">
          <mxGeometry x="677" y="585" width="20" height="20" as="geometry" />
        </mxCell>
        <mxCell id="zff_B5IQbPtcPdRi2vjV-40" value="" style="ellipse;whiteSpace=wrap;html=1;aspect=fixed;" vertex="1" parent="WIyWlLk6GJQsqaUBKTNV-1">
          <mxGeometry x="677" y="525" width="20" height="20" as="geometry" />
        </mxCell>
        <mxCell id="zff_B5IQbPtcPdRi2vjV-41" style="edgeStyle=orthogonalEdgeStyle;rounded=0;orthogonalLoop=1;jettySize=auto;html=1;endArrow=none;endFill=0;exitX=1;exitY=0.5;exitDx=0;exitDy=0;entryX=0;entryY=0.5;entryDx=0;entryDy=0;" edge="1" parent="WIyWlLk6GJQsqaUBKTNV-1" target="zff_B5IQbPtcPdRi2vjV-37">
          <mxGeometry relative="1" as="geometry">
            <mxPoint x="486" y="345" as="sourcePoint" />
            <mxPoint x="550" y="530" as="targetPoint" />
            <Array as="points">
              <mxPoint x="486" y="475" />
            </Array>
          </mxGeometry>
        </mxCell>
        <mxCell id="zff_B5IQbPtcPdRi2vjV-42" value="1:n" style="edgeLabel;html=1;align=center;verticalAlign=middle;resizable=0;points=[];" vertex="1" connectable="0" parent="zff_B5IQbPtcPdRi2vjV-41">
          <mxGeometry x="0.09" relative="1" as="geometry">
            <mxPoint as="offset" />
          </mxGeometry>
        </mxCell>
        <mxCell id="zff_B5IQbPtcPdRi2vjV-43" value="id_funcionÃ¡rio" style="text;html=1;strokeColor=none;fillColor=none;align=center;verticalAlign=middle;whiteSpace=wrap;rounded=0;" vertex="1" parent="WIyWlLk6GJQsqaUBKTNV-1">
          <mxGeometry x="713" y="525" width="50" height="20" as="geometry" />
        </mxCell>
        <mxCell id="zff_B5IQbPtcPdRi2vjV-44" value="nome                   " style="text;html=1;strokeColor=none;fillColor=none;align=center;verticalAlign=middle;whiteSpace=wrap;rounded=0;" vertex="1" parent="WIyWlLk6GJQsqaUBKTNV-1">
          <mxGeometry x="690" y="555" width="50" height="20" as="geometry" />
        </mxCell>
        <mxCell id="zff_B5IQbPtcPdRi2vjV-45" value="cargo" style="text;html=1;strokeColor=none;fillColor=none;align=center;verticalAlign=middle;whiteSpace=wrap;rounded=0;" vertex="1" parent="WIyWlLk6GJQsqaUBKTNV-1">
          <mxGeometry x="690" y="585" width="50" height="20" as="geometry" />
        </mxCell>
      </root>
    </mxGraphModel>
  </diagram>
</mxfile>
